<svg xmlns="http://www.w3.org/2000/svg" xmlns:xlink="http://www.w3.org/1999/xlink" viewBox="0 0 397.09 4.26"><defs><style>.cls-1,.cls-3{fill:none;}.cls-2{clip-path:url(#clip-path);}.cls-3{stroke:#ff4c42;stroke-width:1.33px;}</style><clipPath id="clip-path"><rect class="cls-1" x="0.41" y="0.13" width="396.27" height="4"/></clipPath></defs><title>Middel 2</title><g id="Laag_2" data-name="Laag 2"><g id="Laag_1-2" data-name="Laag 1"><g class="cls-2"><path class="cls-3" d="M.41,2.13c2.48-2,7.43-2,9.91,0s7.43,2,9.9,0,7.43-2,9.91,0,7.43,2,9.91,0,7.43-2,9.9,0,7.43,2,9.91,0,7.43-2,9.91,0,7.43,2,9.9,0,7.43-2,9.91,0,7.43,2,9.91,0,7.43-2,9.91,0,7.43,2,9.9,0,7.43-2,9.91,0,7.43,2,9.91,0,7.43-2,9.9,0,7.43,2,9.91,0,7.43-2,9.91,0,7.43,2,9.9,0,7.43-2,9.91,0,7.43,2,9.91,0,7.43-2,9.9,0,7.43,2,9.91,0,7.43-2,9.91,0,7.43,2,9.9,0,7.43-2,9.91,0,7.43,2,9.91,0,7.43-2,9.9,0,7.43,2,9.91,0,7.43-2,9.91,0,7.43,2,9.9,0,7.43-2,9.91,0,7.43,2,9.91,0,7.43-2,9.9,0,7.43,2,9.91,0,7.43-2,9.91,0,7.43,2,9.9,0,7.44-2,9.91,0,7.43,2,9.91,0,7.43-2,9.91,0,7.43,2,9.9,0"/></g></g></g></svg>